<svg xmlns="http://www.w3.org/2000/svg" viewBox="0 0 30.88 414.48"><defs><style>.cls-1{fill:#333;}</style></defs><title>aboutVert</title><g id="Layer_2" data-name="Layer 2"><g id="Layer_1-2" data-name="Layer 1"><path class="cls-1" d="M23.64,0l6.91,46.48H18.2l-.65-8.35H13.22l-.73,8.35H0L6.17,0ZM17.23,29.89q-.92-7.9-1.84-19.52-1.85,13.35-2.32,19.52Z"/><path class="cls-1" d="M2.74,92H14.8a31.8,31.8,0,0,1,8.66.89,8.59,8.59,0,0,1,4.75,3.6Q30,99.2,30,105.23q0,4.07-1.28,5.68t-5,2.47q4.19.95,5.68,3.15t1.49,6.74v4.31a17.11,17.11,0,0,1-1.08,7,5.81,5.81,0,0,1-3.43,3.1q-2.36.83-9.65.83h-14Zm12.09,8v10.34l1.21,0q1.78,0,2.27-.88t.49-5a8.09,8.09,0,0,0-.4-3.06,1.93,1.93,0,0,0-1-1.1A9.33,9.33,0,0,0,14.83,100Zm0,17.57v13q2.55-.09,3.26-.8t.7-3.53v-4.34q0-3-.63-3.62T14.83,117.52Z"/><path class="cls-1" d="M30.36,211.22q0,7-.33,9.92a11.1,11.1,0,0,1-6.76,9,17.08,17.08,0,0,1-6.89,1.29,17.5,17.5,0,0,1-6.7-1.22,11.17,11.17,0,0,1-6.93-9,97.89,97.89,0,0,1-.34-10v-8q0-7,.33-9.92a11.11,11.11,0,0,1,6.76-9A17.09,17.09,0,0,1,16.38,183a17.52,17.52,0,0,1,6.71,1.22,11.18,11.18,0,0,1,6.93,9,98.27,98.27,0,0,1,.34,10ZM18.27,195.94a14.45,14.45,0,0,0-.36-4.15,1.43,1.43,0,0,0-1.48-.9,1.65,1.65,0,0,0-1.45.73q-.5.73-.5,4.32v21.71a21.31,21.31,0,0,0,.33,5,1.44,1.44,0,0,0,1.54.95,1.49,1.49,0,0,0,1.58-1.09,22.94,22.94,0,0,0,.34-5.2Z"/><path class="cls-1" d="M30.22,276v31.06a53.72,53.72,0,0,1-.35,7.42,10.05,10.05,0,0,1-2,4.39,10.59,10.59,0,0,1-4.46,3.42,16.81,16.81,0,0,1-6.53,1.16,18.38,18.38,0,0,1-7.35-1.38,11.06,11.06,0,0,1-4.77-3.59,9.94,9.94,0,0,1-1.87-4.67q-.29-2.46-.29-10.32V276H14.66v34.85a13.76,13.76,0,0,0,.33,3.89,1.3,1.3,0,0,0,1.34.85,1.4,1.4,0,0,0,1.48-.93,17.39,17.39,0,0,0,.33-4.41V276Z"/><path class="cls-1" d="M27.09,368v9.3H19.91v37.18H7.82V377.3H.67V368Z"/></g></g></svg>