<svg xmlns="http://www.w3.org/2000/svg" viewBox="0 0 148.11 46.21"><defs><style>.cls-1{fill:#333;}</style></defs><title>about</title><g id="Layer_2" data-name="Layer 2"><g id="Layer_1-2" data-name="Layer 1"><path class="cls-1" d="M23.15,0l6.77,45.53H17.82l-.64-8.18H13l-.71,8.18H0L6,0ZM16.88,29.28q-.9-7.74-1.8-19.12Q13.26,23.23,12.8,29.28Z"/><path class="cls-1" d="M45.84,0V10.78A9.32,9.32,0,0,1,49,8.34a8.8,8.8,0,0,1,3.75-.8,10.28,10.28,0,0,1,4,.73,5.82,5.82,0,0,1,2.62,2.05,6.2,6.2,0,0,1,1.08,2.59,48.52,48.52,0,0,1,.18,5.4V35.13a25.13,25.13,0,0,1-.55,6.12,6.42,6.42,0,0,1-2.57,3.49,7.94,7.94,0,0,1-4.81,1.48A8.15,8.15,0,0,1,49,45.34a9.89,9.89,0,0,1-3.16-2.62l-.73,2.82H34.48V0ZM49.3,18.82A12.19,12.19,0,0,0,48.93,15a1.41,1.41,0,0,0-1.43-.89,1.29,1.29,0,0,0-1.35.77,14.13,14.13,0,0,0-.31,3.9V34.9a12.73,12.73,0,0,0,.35,3.85,1.36,1.36,0,0,0,1.39.84A1.33,1.33,0,0,0,49,38.73a16,16,0,0,0,.32-4.19Z"/><path class="cls-1" d="M93,21.32v9.14a38.52,38.52,0,0,1-.51,7.38,10.36,10.36,0,0,1-2.17,4.39,9.78,9.78,0,0,1-4.26,3,17,17,0,0,1-6,1,21.34,21.34,0,0,1-6.38-.83,8.7,8.7,0,0,1-4.06-2.5,9.88,9.88,0,0,1-2.07-4.05,30.41,30.41,0,0,1-.62-7.13V22.13A23.4,23.4,0,0,1,68.07,14a9.35,9.35,0,0,1,4-4.7A14.26,14.26,0,0,1,79.6,7.54a17.09,17.09,0,0,1,6.57,1.14,10.3,10.3,0,0,1,6.27,6.74A23.4,23.4,0,0,1,93,21.32ZM81.63,18.51a12.41,12.41,0,0,0-.31-3.61A1.28,1.28,0,0,0,80,14.15a1.33,1.33,0,0,0-1.35.75,11.39,11.39,0,0,0-.34,3.61V35.35a10.89,10.89,0,0,0,.34,3.45,1.54,1.54,0,0,0,2.66.07,9.52,9.52,0,0,0,.32-3.15Z"/><path class="cls-1" d="M125.63,8.21V45.53H114.07l.2-3.1a7.91,7.91,0,0,1-2.91,2.83,8.18,8.18,0,0,1-4,.94,9,9,0,0,1-4.25-.9,5.85,5.85,0,0,1-2.49-2.39,8.74,8.74,0,0,1-1-3.11q-.2-1.62-.2-6.43V8.21H110.8v25.4a26.41,26.41,0,0,0,.27,5.17q.27.82,1.45.82t1.5-.84a32.53,32.53,0,0,0,.24-5.43V8.21Z"/><path class="cls-1" d="M144.56,3.23V9.11h3.07V15h-3.07V35q0,3.68.38,4.11t3.16.42v6h-4.58a32.81,32.81,0,0,1-5.54-.32,5.9,5.9,0,0,1-2.92-1.49A5,5,0,0,1,133.48,41a47.39,47.39,0,0,1-.31-7.07V15h-2.45V9.11h2.45V3.23Z"/></g></g></svg>