<svg xmlns="http://www.w3.org/2000/svg" viewBox="0 0 28.48 323.46"><defs><style>.cls-1{fill:#333;}</style></defs><title>blogTitleVert</title><g id="Layer_2" data-name="Layer 2"><g id="Layer_1-2" data-name="Layer 1"><path class="cls-1" d="M.34,0H12.4a31.8,31.8,0,0,1,8.66.89,8.58,8.58,0,0,1,4.75,3.6q1.81,2.71,1.81,8.74,0,4.07-1.28,5.68t-5,2.47q4.19.95,5.69,3.15t1.49,6.74v4.31a17.12,17.12,0,0,1-1.08,7A5.81,5.81,0,0,1,24,45.65q-2.35.83-9.65.83H.34ZM12.43,8V18.29l1.21,0q1.78,0,2.27-.88t.49-5A8.1,8.1,0,0,0,16,9.32a1.93,1.93,0,0,0-1-1.1A9.32,9.32,0,0,0,12.43,8Zm0,17.57v13q2.55-.09,3.26-.8t.7-3.53V29.86q0-3-.63-3.62T12.43,25.52Z"/><path class="cls-1" d="M12.43,92v37.18h7.35v9.3H.34V92Z"/><path class="cls-1" d="M28,211.22q0,7-.33,9.92a11.11,11.11,0,0,1-6.76,9A17.09,17.09,0,0,1,14,231.46a17.51,17.51,0,0,1-6.7-1.22,11.17,11.17,0,0,1-6.93-9,98.22,98.22,0,0,1-.34-10v-8q0-7,.33-9.92a11.11,11.11,0,0,1,6.76-9A17.09,17.09,0,0,1,14,183a17.51,17.51,0,0,1,6.7,1.22,11.17,11.17,0,0,1,6.93,9,98,98,0,0,1,.34,10ZM15.88,195.94a14.4,14.4,0,0,0-.36-4.15,1.43,1.43,0,0,0-1.48-.9,1.65,1.65,0,0,0-1.45.73q-.5.73-.5,4.32v21.71a21.3,21.3,0,0,0,.33,5,1.44,1.44,0,0,0,1.54.95,1.49,1.49,0,0,0,1.58-1.09,23,23,0,0,0,.34-5.2Z"/><path class="cls-1" d="M28.08,293.11H16v-4.22a20.94,20.94,0,0,0-.34-5,1.53,1.53,0,0,0-1.64-1,1.52,1.52,0,0,0-1.52.86,14,14,0,0,0-.4,4.42v22.31a13.26,13.26,0,0,0,.4,4.12,1.56,1.56,0,0,0,1.61,1,1.77,1.77,0,0,0,1.79-1.12,13.09,13.09,0,0,0,.47-4.36V304.6H13.92v-7.06H28.08v24.95h-7.6l-1.12-3.33a8.45,8.45,0,0,1-3.12,3.23,8.79,8.79,0,0,1-4.44,1.08A11.55,11.55,0,0,1,6.11,322a10.92,10.92,0,0,1-4-3.66,11.59,11.59,0,0,1-1.72-4.58A55,55,0,0,1,0,306.55V292.74a46.22,46.22,0,0,1,.72-9.68,9.92,9.92,0,0,1,4.12-5.53,14.44,14.44,0,0,1,8.8-2.51,16.4,16.4,0,0,1,8.81,2.18A10.3,10.3,0,0,1,27,282.39a27.45,27.45,0,0,1,1.06,8.71Z"/></g></g></svg>