<svg
  xmlns="http://www.w3.org/2000/svg"
  viewBox="0 0 111.16 51.97">
  <defs><style>.cls-1{fill:#333;}</style></defs>
  <title>blog</title>
  <g id="Layer_2" data-name="Layer 2">
    <g id="Layer_1-2" data-name="Layer 1">
      <path class="cls-1" d="M0,0H11.81a31.16,31.16,0,0,1,8.48.87A8.41,8.41,0,0,1,24.95,4.4Q26.72,7.05,26.72,13q0,4-1.25,5.57t-4.94,2.42q4.11.93,5.57,3.08t1.46,6.6v4.22a16.76,16.76,0,0,1-1.05,6.84,5.69,5.69,0,0,1-3.36,3q-2.31.82-9.45.82H0ZM11.84,7.79V17.92l1.18,0q1.74,0,2.22-.86t.48-4.91a7.93,7.93,0,0,0-.39-3A1.89,1.89,0,0,0,14.3,8,9.15,9.15,0,0,0,11.84,7.79Zm0,17.21V37.74q2.5-.08,3.19-.79t.69-3.46V29.25q0-2.93-.62-3.54T11.84,25Z"/>
      <path class="cls-1" d="M46.05,0V45.53H34.35V0Z"/>
      <path class="cls-1" d="M78.72,21.32v9.14a38.57,38.57,0,0,1-.51,7.38A10.36,10.36,0,0,1,76,42.23a9.78,9.78,0,0,1-4.26,3,17,17,0,0,1-6,1,21.33,21.33,0,0,1-6.38-.83,8.69,8.69,0,0,1-4.06-2.5,9.88,9.88,0,0,1-2.07-4.05,30.44,30.44,0,0,1-.62-7.13V22.13A23.4,23.4,0,0,1,53.8,14a9.34,9.34,0,0,1,4-4.7,14.26,14.26,0,0,1,7.48-1.77A17.09,17.09,0,0,1,71.9,8.68a10.3,10.3,0,0,1,6.27,6.74A23.42,23.42,0,0,1,78.72,21.32ZM67.35,18.51A12.41,12.41,0,0,0,67,14.89a1.28,1.28,0,0,0-1.32-.75,1.33,1.33,0,0,0-1.35.75A11.4,11.4,0,0,0,64,18.51V35.35a10.91,10.91,0,0,0,.34,3.45,1.54,1.54,0,0,0,2.66.07,9.54,9.54,0,0,0,.32-3.15Z"/>
      <path class="cls-1" d="M111.16,8.21V37a63.62,63.62,0,0,1-.27,7.52,7.51,7.51,0,0,1-1.9,3.6,10.19,10.19,0,0,1-4.54,2.9,22.9,22.9,0,0,1-7.33,1,17.82,17.82,0,0,1-8.72-1.84q-3.29-1.84-3.4-7.24H96q0,2.47,1.8,2.47a1.79,1.79,0,0,0,1.72-.76,7.68,7.68,0,0,0,.42-3.18V38.61a10.79,10.79,0,0,1-3.08,2,8.69,8.69,0,0,1-3.39.68,9.39,9.39,0,0,1-5-1.24,6.33,6.33,0,0,1-2.71-3.25A17.46,17.46,0,0,1,85,31.08V17.52q0-5.32,1.91-7.65t5.82-2.33a8.63,8.63,0,0,1,3.9.87A9.25,9.25,0,0,1,99.77,11l.82-2.82Zm-11.39,9.9a10.8,10.8,0,0,0-.3-3.26,1.26,1.26,0,0,0-1.31-.7,1.43,1.43,0,0,0-1.39.8,8,8,0,0,0-.41,3.16V30.66a10.49,10.49,0,0,0,.31,3.25,1.25,1.25,0,0,0,1.29.75,1.39,1.39,0,0,0,1.46-.9,14.85,14.85,0,0,0,.34-4.08Z"/>
    </g>
  </g>
</svg>
