<svg
  xmlns="http://www.w3.org/2000/svg"
  viewBox="0 0 60.85 47.33">
  <defs>
    <style>.cls-1{fill:#333;}</style>
  </defs>
  <title>d3</title>
  <g id="Layer_2" data-name="Layer 2">
    <g id="Layer_1-2" data-name="Layer 1">
      <path class="cls-1" d="M0,.9H8.86q8.58,0,11.6.79a8.9,8.9,0,0,1,4.6,2.59,8.2,8.2,0,0,1,2,4A60.62,60.62,0,0,1,27.42,17V32.91a37.09,37.09,0,0,1-.58,8.2,6.17,6.17,0,0,1-2,3.23A8.36,8.36,0,0,1,21.29,46a32.06,32.06,0,0,1-6.36.46H0ZM11.84,8.69v30q2.56,0,3.15-1T15.58,32V14.34a23.8,23.8,0,0,0-.2-4,1.88,1.88,0,0,0-.9-1.28A5.85,5.85,0,0,0,11.84,8.69Z"/>
      <path class="cls-1" d="M55.73,20.63a7,7,0,0,1,3.85,2.86q1.27,2,1.27,9.3a22.8,22.8,0,0,1-1.24,8.43,8.8,8.8,0,0,1-4.27,4.56,17,17,0,0,1-7.79,1.56q-5.4,0-8.48-1.81A8.8,8.8,0,0,1,35,41.08Q34,38.45,34,32v-3.6H45.4v7.4a12,12,0,0,0,.35,3.75,1.52,1.52,0,0,0,1.56.8,1.69,1.69,0,0,0,1.74-1A18.89,18.89,0,0,0,49.48,34V30.85A9.23,9.23,0,0,0,48.89,27a2.93,2.93,0,0,0-1.74-1.59A18,18,0,0,0,42.68,25V18.39a22.87,22.87,0,0,0,5-.31,2.19,2.19,0,0,0,1.38-1.35,9.29,9.29,0,0,0,.42-3.26V10.94A6.59,6.59,0,0,0,49,7.79,1.7,1.7,0,0,0,47.46,7a1.67,1.67,0,0,0-1.62.8,8.47,8.47,0,0,0-.44,3.42V15H34V11.11q0-6.52,3-8.82T46.5,0q8.13,0,11,3.18T60.42,12q0,3.82-1,5.52A9.3,9.3,0,0,1,55.73,20.63Z"/>
    </g>
  </g>
</svg>
