<svg xmlns="http://www.w3.org/2000/svg" viewBox="0 0 206.91 98.45"><defs><style>.cls-1{fill:#333;}</style></defs><title>donutTitle</title><g id="Layer_2" data-name="Layer 2"><g id="Layer_1-2" data-name="Layer 1"><path class="cls-1" d="M0,1.35H13.29q12.87,0,17.4,1.18a13.36,13.36,0,0,1,6.9,3.88,12.3,12.3,0,0,1,3,6,91.08,91.08,0,0,1,.59,13V49.36q0,9.2-.87,12.3a9.25,9.25,0,0,1-3,4.85A12.54,12.54,0,0,1,31.94,69a48,48,0,0,1-9.53.7H0ZM17.76,13V58q3.84,0,4.72-1.54t.89-8.37V21.52a35.56,35.56,0,0,0-.3-5.95,2.82,2.82,0,0,0-1.35-1.92A8.77,8.77,0,0,0,17.76,13Z"/><path class="cls-1" d="M83.59,30.94a10.57,10.57,0,0,1,5.78,4.28q1.9,3,1.9,14,0,8.15-1.86,12.64A13.2,13.2,0,0,1,83,68.66,25.51,25.51,0,0,1,71.31,71q-8.1,0-12.72-2.72a13.2,13.2,0,0,1-6.07-6.67q-1.46-3.94-1.46-13.69v-5.4h17v11.1q0,4.43.53,5.63A2.28,2.28,0,0,0,71,60.45a2.54,2.54,0,0,0,2.62-1.52q.63-1.52.63-7.93V46.28a13.83,13.83,0,0,0-.89-5.74,4.39,4.39,0,0,0-2.62-2.38A27,27,0,0,0,64,37.5V27.59q6.07,0,7.51-.46a3.28,3.28,0,0,0,2.07-2,14,14,0,0,0,.63-4.89v-3.8q0-3.59-.74-4.73a2.54,2.54,0,0,0-2.3-1.14,2.51,2.51,0,0,0-2.43,1.2q-.65,1.2-.65,5.13v5.61h-17V16.66q0-9.79,4.47-13.23T69.75,0Q81.94,0,86.29,4.76T90.64,18q0,5.73-1.56,8.28A13.94,13.94,0,0,1,83.59,30.94Z"/><path class="cls-1" d="M52,94.06H52a8.41,8.41,0,0,1-2.88,3.29,8.61,8.61,0,0,1-7.81.31,7.1,7.1,0,0,1-2.48-2.12,9.2,9.2,0,0,1-1.44-3.08,14.67,14.67,0,0,1,0-7.49,8.72,8.72,0,0,1,1.53-3.08,7.34,7.34,0,0,1,2.57-2.05,8.2,8.2,0,0,1,3.64-.76,8,8,0,0,1,2.2.31,7.69,7.69,0,0,1,2,.88A6.34,6.34,0,0,1,52,83.66H52V72.32h1.37V98H52Zm-6.88,3.2a6.11,6.11,0,0,0,3-.72,6.48,6.48,0,0,0,2.12-1.91,8.44,8.44,0,0,0,1.26-2.72A11.9,11.9,0,0,0,52,88.81a12,12,0,0,0-.41-3.15,8.91,8.91,0,0,0-1.24-2.74A6.14,6.14,0,0,0,48.21,81a6.31,6.31,0,0,0-3.08-.72A6.5,6.5,0,0,0,42,81a6.24,6.24,0,0,0-2.14,1.89,7.89,7.89,0,0,0-1.22,2.74,13.47,13.47,0,0,0-.38,3.2A12,12,0,0,0,38.67,92a8.44,8.44,0,0,0,1.26,2.72,6.23,6.23,0,0,0,2.14,1.89A6.41,6.41,0,0,0,45.16,97.27Z"/><path class="cls-1" d="M56.9,88.77A12.17,12.17,0,0,1,57.46,85,9.36,9.36,0,0,1,59.1,82a7.8,7.8,0,0,1,2.66-2.11,8.93,8.93,0,0,1,7.27,0A7.8,7.8,0,0,1,71.7,82,9.36,9.36,0,0,1,73.33,85a12.17,12.17,0,0,1,.56,3.73,12.34,12.34,0,0,1-.56,3.74,9.13,9.13,0,0,1-1.64,3.08A7.88,7.88,0,0,1,69,97.68a8.93,8.93,0,0,1-7.27,0,7.88,7.88,0,0,1-2.66-2.09,9.13,9.13,0,0,1-1.64-3.08A12.34,12.34,0,0,1,56.9,88.77Zm1.37,0A10.81,10.81,0,0,0,58.74,92a8.62,8.62,0,0,0,1.37,2.72,6.65,6.65,0,0,0,2.23,1.89,7,7,0,0,0,6.12,0,6.67,6.67,0,0,0,2.23-1.89A8.64,8.64,0,0,0,72.06,92a11.06,11.06,0,0,0,0-6.37,8.64,8.64,0,0,0-1.37-2.72A6.67,6.67,0,0,0,68.46,81a7,7,0,0,0-6.12,0,6.65,6.65,0,0,0-2.23,1.89,8.63,8.63,0,0,0-1.37,2.72A10.82,10.82,0,0,0,58.27,88.77Z"/><path class="cls-1" d="M77.1,79.52h1.37v4h.07a5.92,5.92,0,0,1,1-1.85A6.82,6.82,0,0,1,83,79.37a8,8,0,0,1,2.12-.29,8.41,8.41,0,0,1,2.75.4,5.42,5.42,0,0,1,1.85,1A5.05,5.05,0,0,1,90.9,82a6.77,6.77,0,0,1,.59,1.64,9.71,9.71,0,0,1,.22,1.6q0,.77,0,1.35V98H90.38V86.32q0-.68-.11-1.73a5.26,5.26,0,0,0-.63-2A4.58,4.58,0,0,0,88.06,81a5.39,5.39,0,0,0-2.93-.68,6.52,6.52,0,0,0-2.81.58,6.07,6.07,0,0,0-2.09,1.6,7.06,7.06,0,0,0-1.31,2.45A10.26,10.26,0,0,0,78.46,88V98H77.1Z"/><path class="cls-1" d="M110.43,98h-1.37v-4H109a5.93,5.93,0,0,1-1,1.85,6.8,6.8,0,0,1-3.47,2.25,7.93,7.93,0,0,1-2.12.29,8.42,8.42,0,0,1-2.75-.4,5.39,5.39,0,0,1-1.85-1,5,5,0,0,1-1.13-1.46A6.73,6.73,0,0,1,96,93.92a9.59,9.59,0,0,1-.22-1.6q0-.77,0-1.35V79.52h1.37v11.7A17,17,0,0,0,97.26,93a5.23,5.23,0,0,0,.63,2,4.59,4.59,0,0,0,1.57,1.64,5.36,5.36,0,0,0,3,.68,6.56,6.56,0,0,0,2.79-.58,6,6,0,0,0,2.11-1.6,7.05,7.05,0,0,0,1.31-2.45,10.28,10.28,0,0,0,.45-3.11v-10h1.37Z"/><path class="cls-1" d="M121.27,80.71h-4V93.63a5,5,0,0,0,.25,1.76,2,2,0,0,0,.77,1,2.74,2.74,0,0,0,1.26.41,12.87,12.87,0,0,0,1.71,0V98a12.82,12.82,0,0,1-2,0,4.09,4.09,0,0,1-1.75-.54,3.16,3.16,0,0,1-1.21-1.35,5.11,5.11,0,0,1-.38-2.48V80.71h-3.42V79.52h3.42V73.76h1.37v5.76h4Z"/><path class="cls-1" d="M147.73,85.24a5.37,5.37,0,0,0-.63-2.16,4.83,4.83,0,0,0-1.35-1.55,6.14,6.14,0,0,0-1.93-.94,8.31,8.31,0,0,0-2.36-.32,6.47,6.47,0,0,0-3.06.7,6.73,6.73,0,0,0-2.23,1.87,8.49,8.49,0,0,0-1.37,2.66,10.22,10.22,0,0,0-.47,3.08,13.1,13.1,0,0,0,.43,3.46,7.84,7.84,0,0,0,1.33,2.75,6.19,6.19,0,0,0,2.23,1.82,7.07,7.07,0,0,0,3.13.65,6.48,6.48,0,0,0,2.39-.43,6.41,6.41,0,0,0,1.94-1.19,6.15,6.15,0,0,0,1.39-1.82,7.4,7.4,0,0,0,.72-2.32h1.37a8.68,8.68,0,0,1-.9,3,7.24,7.24,0,0,1-1.73,2.18A7.5,7.5,0,0,1,144.27,98a9.21,9.21,0,0,1-6.68-.34A7.41,7.41,0,0,1,135,95.47a9.26,9.26,0,0,1-1.51-3.15,14.08,14.08,0,0,1-.49-3.73,11.87,11.87,0,0,1,.56-3.67,9,9,0,0,1,1.64-3,7.77,7.77,0,0,1,2.66-2.05,8.35,8.35,0,0,1,3.64-.76,10.18,10.18,0,0,1,2.83.38,7.31,7.31,0,0,1,2.34,1.13,5.92,5.92,0,0,1,1.67,1.93,6.88,6.88,0,0,1,.79,2.72Z"/><path class="cls-1" d="M153.85,72.32V83.48h.07a5.92,5.92,0,0,1,1-1.85,6.82,6.82,0,0,1,3.47-2.25,8,8,0,0,1,2.12-.29,8.41,8.41,0,0,1,2.75.4,5.42,5.42,0,0,1,1.85,1A5.05,5.05,0,0,1,166.28,82a6.77,6.77,0,0,1,.59,1.64,9.71,9.71,0,0,1,.22,1.6q0,.77,0,1.35V98h-1.37V86.32q0-.68-.11-1.73a5.26,5.26,0,0,0-.63-2A4.58,4.58,0,0,0,163.44,81a5.39,5.39,0,0,0-2.93-.68,6.52,6.52,0,0,0-2.81.58,6.07,6.07,0,0,0-2.09,1.6,7.06,7.06,0,0,0-1.31,2.45,10.26,10.26,0,0,0-.45,3.11V98h-1.37V72.32Z"/><path class="cls-1" d="M183.44,94.35h-.07a5.69,5.69,0,0,1-.94,1.57,6.63,6.63,0,0,1-1.49,1.31,7.46,7.46,0,0,1-2,.9,8.77,8.77,0,0,1-2.45.32,7.22,7.22,0,0,1-4.57-1.28,4.71,4.71,0,0,1-1.62-3.94A4.62,4.62,0,0,1,172.58,89a7,7,0,0,1,2.2-.85,21.54,21.54,0,0,1,2.32-.36l2.12-.18a12.48,12.48,0,0,0,2.32-.34,3,3,0,0,0,1.28-.65,1.84,1.84,0,0,0,.54-1.06,10.07,10.07,0,0,0,.11-1.62,3.42,3.42,0,0,0-.29-1.4,3.15,3.15,0,0,0-.9-1.15,4.46,4.46,0,0,0-1.58-.79,8.48,8.48,0,0,0-2.38-.29,6.24,6.24,0,0,0-4,1.22,4.85,4.85,0,0,0-1.67,3.71h-1.37a6.06,6.06,0,0,1,2-4.59,7.81,7.81,0,0,1,5.17-1.53q3.35,0,4.88,1.31a4.32,4.32,0,0,1,1.53,3.44V94.6q0,.4,0,.79a2.66,2.66,0,0,0,.13.72,1.09,1.09,0,0,0,.36.52,1.14,1.14,0,0,0,.72.2,6.51,6.51,0,0,0,1-.11v1.15a4.32,4.32,0,0,1-1.12.14,3.3,3.3,0,0,1-1.31-.22,1.73,1.73,0,0,1-.74-.58,2.12,2.12,0,0,1-.34-.85,5.88,5.88,0,0,1-.09-1.06Zm0-6.84a2.6,2.6,0,0,1-1.53.83,19,19,0,0,1-2.29.32l-2.3.22q-1,.11-2,.31a5.87,5.87,0,0,0-1.82.67,3.72,3.72,0,0,0-1.31,1.28,3.93,3.93,0,0,0-.5,2.11,3.58,3.58,0,0,0,1.3,3,5.74,5.74,0,0,0,3.56,1,7,7,0,0,0,3.71-.85,6.57,6.57,0,0,0,2.09-1.94,6,6,0,0,0,.92-2.12,9.08,9.08,0,0,0,.2-1.39Z"/><path class="cls-1" d="M190.53,83.62h.11a4.49,4.49,0,0,1,.92-1.69,6.44,6.44,0,0,1,1.62-1.37,8,8,0,0,1,2.12-.88,8.59,8.59,0,0,1,2.43-.27v1.37a6.49,6.49,0,0,0-2.47.22,6,6,0,0,0-2.65,1.58,13,13,0,0,0-.88,1,5.1,5.1,0,0,0-.63,1.12,7,7,0,0,0-.4,1.37,11.8,11.8,0,0,0-.18,1.8V98h-1.37V79.52h1.37Z"/><path class="cls-1" d="M206.91,80.71h-4V93.63a5,5,0,0,0,.25,1.76,2,2,0,0,0,.77,1,2.74,2.74,0,0,0,1.26.41,12.87,12.87,0,0,0,1.71,0V98a12.82,12.82,0,0,1-2,0,4.09,4.09,0,0,1-1.75-.54,3.16,3.16,0,0,1-1.21-1.35,5.11,5.11,0,0,1-.38-2.48V80.71h-3.42V79.52h3.42V73.76h1.37v5.76h4Z"/></g></g></svg>