<svg xmlns="http://www.w3.org/2000/svg" viewBox="0 0 148.21 46.21"><defs><style>.cls-1{fill:#333;}</style></defs><title>donut</title><g id="Layer_2" data-name="Layer 2"><g id="Layer_1-2" data-name="Layer 1"><path class="cls-1" d="M0,0H8.86q8.58,0,11.6.79a8.9,8.9,0,0,1,4.6,2.59,8.2,8.2,0,0,1,2,4,60.7,60.7,0,0,1,.39,8.68V32a37.09,37.09,0,0,1-.58,8.2,6.17,6.17,0,0,1-2,3.23,8.37,8.37,0,0,1-3.54,1.63,32.06,32.06,0,0,1-6.36.46H0ZM11.84,7.79v30q2.56,0,3.15-1t.59-5.58V13.44a23.82,23.82,0,0,0-.2-4,1.88,1.88,0,0,0-.9-1.28A5.85,5.85,0,0,0,11.84,7.79Z"/><path class="cls-1" d="M60.09,21.32v9.14a38.6,38.6,0,0,1-.51,7.38,10.36,10.36,0,0,1-2.17,4.39,9.79,9.79,0,0,1-4.26,3,17,17,0,0,1-6,1,21.34,21.34,0,0,1-6.38-.83,8.7,8.7,0,0,1-4.06-2.5,9.88,9.88,0,0,1-2.07-4.05A30.46,30.46,0,0,1,34,31.7V22.13A23.4,23.4,0,0,1,35.17,14a9.34,9.34,0,0,1,4.05-4.7A14.25,14.25,0,0,1,46.7,7.54a17.09,17.09,0,0,1,6.57,1.14,10.3,10.3,0,0,1,6.27,6.74A23.45,23.45,0,0,1,60.09,21.32ZM48.72,18.51a12.46,12.46,0,0,0-.31-3.61,1.28,1.28,0,0,0-1.32-.75,1.33,1.33,0,0,0-1.35.75,11.39,11.39,0,0,0-.34,3.61V35.35a10.89,10.89,0,0,0,.34,3.45,1.54,1.54,0,0,0,2.66.07,9.53,9.53,0,0,0,.32-3.15Z"/><path class="cls-1" d="M78.27,8.21l-.2,3.44a8.51,8.51,0,0,1,3-3.08,8.11,8.11,0,0,1,4.12-1A7.81,7.81,0,0,1,90,8.92a6.13,6.13,0,0,1,2.39,3.47,31.75,31.75,0,0,1,.53,7V45.53H81.56V19.69A24.12,24.12,0,0,0,81.3,15q-.25-.84-1.41-.84a1.41,1.41,0,0,0-1.52,1,24.43,24.43,0,0,0-.31,5.19V45.53H66.71V8.21Z"/><path class="cls-1" d="M125.72,8.21V45.53H114.17l.2-3.1a7.91,7.91,0,0,1-2.91,2.83,8.17,8.17,0,0,1-4,.94,9,9,0,0,1-4.25-.9,5.85,5.85,0,0,1-2.49-2.39,8.74,8.74,0,0,1-1-3.11q-.2-1.62-.2-6.43V8.21H110.9v25.4a26.45,26.45,0,0,0,.27,5.17q.27.82,1.45.82t1.5-.84a32.36,32.36,0,0,0,.24-5.43V8.21Z"/><path class="cls-1" d="M144.66,3.23V9.11h3.07V15h-3.07V35q0,3.68.38,4.11t3.16.42v6h-4.58a32.8,32.8,0,0,1-5.54-.32,5.9,5.9,0,0,1-2.93-1.49A5,5,0,0,1,133.58,41a47.24,47.24,0,0,1-.31-7.07V15h-2.45V9.11h2.45V3.23Z"/></g></g></svg>