<svg xmlns="http://www.w3.org/2000/svg" viewBox="0 0 261.27 47.45"><defs><style>.cls-1{fill:#333;}</style></defs><title>lineChart</title><g id="Layer_2" data-name="Layer 2"><g id="Layer_1-2" data-name="Layer 1"><path class="cls-1" d="M11.84,1V37.38H19v9.11H0V1Z"/><path class="cls-1" d="M36.15,1V6.89H24.45V1Zm0,8.21V46.49H24.45V9.17Z"/><path class="cls-1" d="M54.67,9.17l-.2,3.44a8.52,8.52,0,0,1,3-3.08,8.11,8.11,0,0,1,4.12-1A7.82,7.82,0,0,1,66.4,9.87a6.14,6.14,0,0,1,2.39,3.47,31.83,31.83,0,0,1,.53,7V46.49H58V20.64a24,24,0,0,0-.25-4.7q-.25-.84-1.41-.84a1.41,1.41,0,0,0-1.52,1,24.4,24.4,0,0,0-.31,5.19V46.49H43.11V9.17Z"/><path class="cls-1" d="M101.85,28.49H87.14v8.07a9,9,0,0,0,.37,3.26,1.42,1.42,0,0,0,1.41.73,1.71,1.71,0,0,0,1.73-1,10.63,10.63,0,0,0,.44-3.75V30.91h10.77v2.76a24.72,24.72,0,0,1-.44,5.32,10.8,10.8,0,0,1-2,4,9.92,9.92,0,0,1-4.06,3.16,15.73,15.73,0,0,1-6.17,1.05,17.94,17.94,0,0,1-6.36-1,10.18,10.18,0,0,1-4.29-2.85,10.31,10.31,0,0,1-2.12-4,25.79,25.79,0,0,1-.59-6.34V22.05a18.53,18.53,0,0,1,1.32-7.72A9.07,9.07,0,0,1,81.43,10a15.27,15.27,0,0,1,6.92-1.5,15.47,15.47,0,0,1,7.89,1.81,10,10,0,0,1,4.36,4.81,22.55,22.55,0,0,1,1.25,8.42ZM90.46,22.42V19.69a13.76,13.76,0,0,0-.31-3.74,1.22,1.22,0,0,0-1.27-.84q-1.18,0-1.46.72a14.94,14.94,0,0,0-.28,3.87v2.73Z"/><path class="cls-1" d="M149.46,20.78H137.62V12.87a14.13,14.13,0,0,0-.38-4.31,1.63,1.63,0,0,0-1.67-.86,1.75,1.75,0,0,0-1.86,1,15.83,15.83,0,0,0-.39,4.5V34.4a14.75,14.75,0,0,0,.39,4.33,1.68,1.68,0,0,0,1.77,1,1.67,1.67,0,0,0,1.73-1,16.57,16.57,0,0,0,.41-4.77V28.24h11.84V30q0,7.07-1,10A10.25,10.25,0,0,1,144,45.22a15.12,15.12,0,0,1-8.42,2.22A17.45,17.45,0,0,1,127,45.56a9.16,9.16,0,0,1-4.47-5.22,34.19,34.19,0,0,1-1.1-10V17a59.22,59.22,0,0,1,.34-7.38,10.32,10.32,0,0,1,2-4.74,11.2,11.2,0,0,1,4.64-3.59A19,19,0,0,1,143.92,2a9.7,9.7,0,0,1,4.47,5q1.07,3,1.07,9.39Z"/><path class="cls-1" d="M167.61,1V11.2a10.21,10.21,0,0,1,3.16-2,9.76,9.76,0,0,1,3.64-.68A8.42,8.42,0,0,1,179.49,10a6.08,6.08,0,0,1,2.56,3.5,37.34,37.34,0,0,1,.46,7.24V46.49H171.15V20.22a16.28,16.28,0,0,0-.32-4.19,1.37,1.37,0,0,0-1.45-.93,1.38,1.38,0,0,0-1.41,1,12.65,12.65,0,0,0-.37,3.8V46.49H156.25V1Z"/><path class="cls-1" d="M199.46,23.63H188.8v-2.5a17.65,17.65,0,0,1,1-6.68,9.26,9.26,0,0,1,4-4.15,15.08,15.08,0,0,1,7.82-1.8q5.77,0,8.69,2a8,8,0,0,1,3.52,5q.59,3,.59,12.22V46.49H203.37V43.17a6.93,6.93,0,0,1-6.61,4,9.6,9.6,0,0,1-5.47-1.67q-2.49-1.67-2.49-7.33V35.1q0-4.19,1.32-5.71t6.55-3.54q5.6-2.19,6-3a7.86,7.86,0,0,0,.39-3.09,10.41,10.41,0,0,0-.44-3.81,1.5,1.5,0,0,0-1.45-.89q-1.15,0-1.43.75a15.14,15.14,0,0,0-.28,3.87Zm3.6,5.12q-2.73,2-3.16,3.35a13.27,13.27,0,0,0-.44,3.88,11.31,11.31,0,0,0,.38,3.74,1.48,1.48,0,0,0,1.5.84,1.39,1.39,0,0,0,1.39-.66,10.7,10.7,0,0,0,.32-3.47Z"/><path class="cls-1" d="M232.57,9.17l-.45,4.91q2.47-5.27,7.17-5.58V21.63a9.52,9.52,0,0,0-4.58.84,3.54,3.54,0,0,0-1.8,2.35,42.19,42.19,0,0,0-.34,6.93V46.49H221.21V9.17Z"/><path class="cls-1" d="M257.73,4.19v5.88h3.07V16h-3.07v20q0,3.68.38,4.11t3.16.42v6h-4.58a32.81,32.81,0,0,1-5.54-.32,5.9,5.9,0,0,1-2.92-1.49A5,5,0,0,1,246.65,42a47.39,47.39,0,0,1-.31-7.07V16h-2.45V10.07h2.45V4.19Z"/></g></g></svg>