<svg xmlns="http://www.w3.org/2000/svg" viewBox="0 0 101 101"><defs><style>.cls-1,.cls-3{fill:none;stroke-miterlimit:10;}.cls-1{stroke:#231f20;}.cls-2{fill:#f7941d;}.cls-3{stroke:#fff;stroke-linecap:round;stroke-width:2px;stroke-dasharray:0 3.97;}</style></defs><title>jpl_logo_1Asset 5</title><g id="Layer_2" data-name="Layer 2"><g id="Layer_1-2" data-name="Layer 1"><path d="M100.5,50.5a50.24,50.24,0,0,1-1,9.76,49.72,49.72,0,0,1-7.47,18A50.14,50.14,0,0,1,69.64,96.71a49.62,49.62,0,0,1-9.38,2.84,50.5,50.5,0,0,1-19.51,0,49.72,49.72,0,0,1-18-7.47A50.14,50.14,0,0,1,4.29,69.64a49.62,49.62,0,0,1-2.84-9.38,50.5,50.5,0,0,1,0-19.51,49.72,49.72,0,0,1,7.47-18A50.14,50.14,0,0,1,31.36,4.29a49.62,49.62,0,0,1,9.38-2.84,50.5,50.5,0,0,1,19.51,0,49.72,49.72,0,0,1,18,7.47A50.14,50.14,0,0,1,96.71,31.36a49.62,49.62,0,0,1,2.84,9.38A50.24,50.24,0,0,1,100.5,50.5Z"/><path class="cls-1" d="M100.5,50.5a50.24,50.24,0,0,1-1,9.76,49.72,49.72,0,0,1-7.47,18A50.14,50.14,0,0,1,69.64,96.71a49.62,49.62,0,0,1-9.38,2.84,50.5,50.5,0,0,1-19.51,0,49.72,49.72,0,0,1-18-7.47A50.14,50.14,0,0,1,4.29,69.64a49.62,49.62,0,0,1-2.84-9.38,50.5,50.5,0,0,1,0-19.51,49.72,49.72,0,0,1,7.47-18A50.14,50.14,0,0,1,31.36,4.29a49.62,49.62,0,0,1,9.38-2.84,50.5,50.5,0,0,1,19.51,0,49.72,49.72,0,0,1,18,7.47A50.14,50.14,0,0,1,96.71,31.36a49.62,49.62,0,0,1,2.84,9.38A50.24,50.24,0,0,1,100.5,50.5Z"/><path class="cls-2" d="M34.17,36.51v18a9,9,0,0,1-2.71,6.71,9.43,9.43,0,0,1-6.87,2.65,10.94,10.94,0,0,1-2.85-.45V55.71A3.68,3.68,0,0,0,23,56q1.84,0,1.84-2.52V36.51Z"/><path class="cls-2" d="M49.73,54V47q2.83,0,2.83-1.84,0-1.68-2.16-1.68t-2.18,2.3V63.17H38.88V46.57a12.39,12.39,0,0,1,.61-4.23,8.29,8.29,0,0,1,2.08-3.08,11.84,11.84,0,0,1,4.14-2.5,14.66,14.66,0,0,1,5.12-.92,12.06,12.06,0,0,1,8,2.73,8.51,8.51,0,0,1,3.25,6.78,7.91,7.91,0,0,1-2.92,6.37Q56.53,54,51.15,54Z"/><path class="cls-2" d="M65.33,36.51h9.33V52.35a3.27,3.27,0,0,0,.7,2.47,4.41,4.41,0,0,0,2.77.62h.48v7.73H76.13q-5.1,0-8-2.53a8.9,8.9,0,0,1-2.85-7Z"/><circle class="cls-3" cx="50.5" cy="50.5" r="43"/></g></g></svg>