<svg xmlns="http://www.w3.org/2000/svg" viewBox="0 0 100 100"><defs><style>.cls-1{fill:#bce7fb;}.cls-2{fill:none;stroke:#fff;stroke-miterlimit:10;}.cls-3{fill:#fff;}</style></defs><title>jpl_logoAsset 3</title><g id="Layer_2" data-name="Layer 2"><g id="Layer_1-2" data-name="Layer 1"><circle class="cls-1" cx="50" cy="50" r="50"/><circle class="cls-2" cx="50" cy="50" r="47.5"/><polygon class="cls-2" points="79.66 68.34 14.6 68.34 20.34 31.66 85.4 31.66 79.66 68.34"/><path class="cls-3" d="M40.55,36.42,37.11,54.26a12,12,0,0,1-3.57,6.66,9,9,0,0,1-6.3,2.63,7.18,7.18,0,0,1-2.32-.45l1.47-7.62a2.38,2.38,0,0,0,1,.25q1.55,0,2-2.5l3.24-16.81Z"/><path class="cls-3" d="M50.34,53.73l1.34-6.94q2.38,0,2.74-1.82.32-1.67-1.5-1.67t-2.28,2.29L47.3,62.88H39.43L42.6,46.41a16.19,16.19,0,0,1,1.32-4.2,11,11,0,0,1,2.34-3.05,12.82,12.82,0,0,1,4-2.48,12,12,0,0,1,4.5-.91A7.62,7.62,0,0,1,61,38.48a7.78,7.78,0,0,1,1.45,6.73,10.52,10.52,0,0,1-3.68,6.32,10.92,10.92,0,0,1-7.21,2.23Z"/><path class="cls-3" d="M66.84,36.42h7.87l-3,15.72a3.32,3.32,0,0,0,.12,2.45q.47.61,2.22.61h.41l-1.48,7.68H70.85q-4.3,0-6.22-2.51t-1.06-7Z"/></g></g></svg>